<svg version="1.1" xmlns="http://www.w3.org/2000/svg" width="32" height="32" viewBox="0 0 32 32">
<title>contract</title>
<path d="M9.879 31.775h-8.83c-0.581 0-1.031-0.469-1.031-1.050v-8.698c-0.019-0.281-0.037-0.206 0-0.487v-6.28c0-2.006 1.65-3.637 3.656-3.637h2.343c2.718 0 4.93 2.193 4.93 4.93v2.081h3.637c0.506 0 0.975 0.112 1.406 0.281 0.45-0.169 0.9-0.244 1.387-0.244h3.693v-2.118c0-2.737 2.212-4.93 4.949-4.93h2.325c2.006 0 3.656 1.631 3.656 3.637v15.503c-0.038 0.544-0.506 1.012-1.069 1.012h-8.848c-0.581 0-1.031-0.469-1.031-1.050v-6.711h-10.123v6.749c0 0.544-0.469 1.012-1.050 1.012zM18.859 5.549h-5.755c-0.469 0-0.469-0.731 0-0.731h5.755c0.487 0 0.487 0.731 0 0.731zM18.859 3.243h-5.755c-0.469 0-0.469-0.731 0-0.731h5.755c0.487 0 0.487 0.731 0 0.731zM12.841 10.123c-0.206 0-0.356-0.15-0.356-0.375v-1.931c-0.675-0.019-1.2-0.581-1.2-1.218v-5.155c0-0.675 0.544-1.218 1.219-1.218h6.955c0.675 0 1.218 0.544 1.218 1.218v5.155c0 0.675-0.544 1.218-1.218 1.218h-4.48l-1.837 2.193c-0.056 0.075-0.169 0.112-0.3 0.112zM12.504 0.975c-0.244 0-0.487 0.206-0.487 0.487v5.155c0 0.862 1.2 0.15 1.2 0.862v1.275l1.293-1.537c0.075-0.075 0.187-0.131 0.3-0.131h4.612c0.262 0 0.506-0.206 0.506-0.487v-5.155c0-0.262-0.206-0.487-0.506-0.487h-6.917v0.019zM26.507 10.723c-2.343 0-4.237-1.893-4.237-4.237s1.893-4.237 4.237-4.237c2.343 0 4.237 1.893 4.237 4.237s-1.893 4.237-4.237 4.237zM26.507 2.981c-1.931 0-3.506 1.556-3.506 3.506 0 1.931 1.556 3.524 3.506 3.524s3.506-1.575 3.506-3.524c0-1.95-1.575-3.506-3.506-3.506zM5.455 10.723c-2.325 0-4.255-1.893-4.255-4.237s1.931-4.255 4.255-4.255c2.343 0 4.255 1.893 4.255 4.237 0 2.362-1.912 4.255-4.255 4.255zM5.455 2.981c-1.912 0-3.506 1.556-3.506 3.506 0 1.931 1.556 3.524 3.506 3.524 1.931 0 3.524-1.575 3.524-3.524-0.037-1.95-1.593-3.506-3.524-3.506zM19.777 23.302v-3.881c-0.562 0-2.456-0.038-2.887 0.038 0.825 0.675 1.35 1.687 1.35 2.812v1.031h1.537zM20.49 19.421v3.881h9.129c0.9 0 1.593-0.712 1.593-1.593v-6.449c0-1.593-1.294-2.887-2.887-2.887h-2.343c-2.306 0-4.18 1.875-4.18 4.18v2.118h5.23c0.15 0 0.281-0.131 0.281-0.3v-2.25c0-0.487 0.731-0.487 0.731 0v2.25c0 0.581-0.469 1.050-1.050 1.050h-6.505zM29.619 24.014h-7.855v6.749c0 0.15 0.131 0.281 0.3 0.281h8.867c0.15 0 0.281-0.131 0.281-0.281v-7.349c-0.412 0.375-0.975 0.6-1.593 0.6zM11.473 23.264v-3.881h-6.524c-0.581 0-1.012-0.469-1.012-1.031v-2.268c0-0.487 0.712-0.487 0.712 0v2.268c0 0.15 0.131 0.281 0.3 0.281h5.268v-2.081c0-2.306-1.875-4.18-4.18-4.18h-2.343c-1.593 0-2.887 1.293-2.887 2.887v6.917c0.206 0.637 0.806 1.087 1.5 1.087h9.167zM12.204 19.384v3.881h5.249v-0.994c0-1.575-1.294-2.887-2.887-2.887h-2.362zM0.806 23.452v7.311c0 0.15 0.131 0.281 0.281 0.281h8.792c0.169 0 0.3-0.131 0.3-0.281v-6.749h-7.836c-0.581 0-1.125-0.206-1.537-0.562z"></path>
</svg>