<svg version="1.1" id="Layer_1" xmlns="http://www.w3.org/2000/svg" xmlns:xlink="http://www.w3.org/1999/xlink" x="0px" y="0px"
	 width="100%" viewBox="0 0 512 608" enable-background="new 0 0 512 608" xml:space="preserve">
<path fill="#000000" opacity="1.000000" stroke="none" 
	d="
M381.197540,453.218567 
	C382.593292,461.813782 380.198883,469.843170 380.052185,477.766449 
	C381.826660,479.495453 383.756836,478.883240 385.509796,478.887756 
	C403.340881,478.933197 421.172577,478.839569 439.003021,478.954163 
	C448.857422,479.017487 457.145294,485.258301 459.657806,494.112701 
	C462.404541,503.792358 458.694427,513.759949 450.331573,518.926636 
	C446.556335,521.258972 442.352448,522.205688 437.943726,522.221130 
	C430.444733,522.247498 422.944733,522.160889 415.446747,522.251770 
	C408.611420,522.334595 403.407166,527.306274 403.364899,533.594116 
	C403.323395,539.768555 408.609955,544.768738 415.550568,544.782593 
	C442.213867,544.836060 468.877350,544.786804 495.540771,544.805237 
	C497.529877,544.806641 499.589233,544.759216 501.490417,545.235535 
	C503.972412,545.857239 505.447205,547.610718 505.269073,550.386353 
	C505.092194,553.142578 503.483124,554.619568 500.901215,555.050354 
	C499.598419,555.267700 498.243347,555.211731 496.911896,555.211243 
	C470.081818,555.201477 443.251709,555.202148 416.421661,555.155823 
	C402.448547,555.131653 393.541534,546.472717 393.556122,533.035706 
	C393.569641,520.572754 402.849823,511.979889 416.414185,511.910767 
	C423.579834,511.874237 430.746643,511.966034 437.911285,511.872559 
	C445.285156,511.776337 450.751312,506.849091 450.625366,500.590973 
	C450.492767,494.002350 445.318909,489.310577 437.989136,489.296173 
	C419.991394,489.260834 401.989410,489.503906 383.998169,489.160370 
	C378.532593,489.056030 377.793060,491.772156 377.294373,496.021545 
	C375.802277,508.735016 374.429871,521.482117 372.297028,534.095398 
	C370.152161,546.780029 359.716766,555.155823 346.870422,555.168945 
	C301.209351,555.215576 255.548141,555.201172 209.887115,555.124207 
	C196.316589,555.101318 185.759033,545.955627 183.939438,532.143066 
	C180.922485,509.241241 178.283005,486.288696 175.608017,463.343109 
	C172.997513,440.950500 189.789642,420.644836 212.946747,418.877319 
	C217.395691,418.537750 218.119110,416.758575 218.100510,413.004517 
	C218.004776,393.674164 217.979568,374.342224 218.155640,355.012848 
	C218.192200,350.998413 216.830414,349.260406 212.939224,348.001221 
	C198.067459,343.188751 189.639786,331.216583 189.605209,315.589386 
	C189.566498,298.091614 189.462555,280.592102 189.678894,263.096954 
	C189.729706,258.988953 188.416290,257.130859 184.425262,256.239166 
	C177.285736,254.644043 170.255280,252.562042 163.175751,250.696793 
	C153.523849,248.153748 147.570129,242.044800 145.848846,232.194031 
	C145.392303,229.581238 144.230728,228.567596 141.839920,227.963959 
	C132.807571,225.683517 123.797615,223.307755 114.816040,220.834152 
	C98.283829,216.281082 91.209221,206.905777 90.819939,188.407394 
	C80.914848,188.834976 77.053444,180.536423 71.435410,174.440735 
	C64.265465,166.661179 54.859455,162.951736 44.869209,160.417053 
	C39.869099,159.148438 34.856777,157.916855 29.896593,156.504761 
	C23.389572,154.652313 21.206444,151.108154 22.654898,145.115189 
	C24.347275,138.112991 29.383083,134.106995 35.445660,135.414017 
	C41.458809,136.710373 47.382446,138.431229 53.327522,140.032089 
	C65.900055,143.417572 78.098373,142.681564 89.680969,136.479218 
	C93.380661,134.498077 96.779785,135.366730 100.254265,136.605103 
	C103.380074,137.719177 105.247734,136.997055 107.177727,134.017151 
	C114.646622,122.485229 127.044037,117.868309 140.655380,121.235443 
	C149.537109,123.432579 158.417328,125.664520 167.198868,128.222061 
	C170.201477,129.096542 172.004532,128.713562 174.043716,126.275185 
	C180.198395,118.915695 188.095993,116.693748 197.380615,119.091270 
	C271.806396,138.309875 346.244568,157.480698 420.663391,176.726227 
	C449.668640,184.227325 466.907104,206.772171 465.162689,235.428116 
	C464.441833,247.269165 459.965698,258.413422 457.117920,269.852173 
	C453.527588,284.273468 445.263000,295.480103 432.543671,303.112152 
	C419.731201,310.800110 405.934052,313.316315 391.250763,309.564301 
	C377.230499,305.981689 363.216400,302.375031 349.193665,298.802216 
	C347.285339,298.316010 345.342590,297.964844 343.615479,297.594025 
	C341.677826,299.350342 342.314209,301.304657 342.312622,303.031677 
	C342.278839,339.527222 342.350220,376.022980 342.227051,412.518127 
	C342.213135,416.643738 343.056122,418.566864 347.633331,419.442719 
	C366.140839,422.984131 377.035248,434.582520 381.197540,453.218567 
M374.446503,294.890869 
	C379.107758,296.130066 383.815796,297.219269 388.415741,298.654907 
	C392.231445,299.845764 393.960114,298.856873 395.096252,294.832367 
	C399.794098,278.190979 404.839203,261.647339 409.788116,245.077179 
	C413.358917,233.121338 416.926331,221.163971 420.605011,209.241165 
	C421.974579,204.802353 425.310638,202.903519 428.266571,204.706604 
	C431.447235,206.646774 431.151398,209.488052 430.208893,212.615036 
	C423.104614,236.184906 416.014252,259.759399 409.062927,283.374664 
	C407.448090,288.860565 405.042328,294.189606 404.619659,300.152588 
	C405.623016,300.415924 406.242798,300.693329 406.872833,300.719116 
	C408.033417,300.766602 409.228455,300.817322 410.359863,300.604584 
	C424.735596,297.901733 435.925934,290.640808 443.130920,277.660645 
	C447.318176,270.117065 448.625793,261.661804 450.922546,253.517975 
	C453.043121,245.998627 455.745148,238.456024 455.418152,230.610626 
	C454.534546,209.409424 440.924042,192.846298 420.279938,187.221176 
	C410.816467,184.642563 401.281708,182.326294 391.784058,179.872375 
	C335.438843,165.314423 279.081543,150.802734 222.776581,136.090744 
	C218.299347,134.920868 216.578613,135.882751 215.441254,140.282791 
	C208.242142,168.133820 200.817917,195.926620 193.490021,223.744431 
	C191.518555,231.228409 189.623657,238.732559 187.597534,246.600540 
	C195.761581,248.745468 203.290375,250.753616 210.834885,252.700867 
	C265.102570,266.707306 319.373444,280.701385 374.446503,294.890869 
M331.945984,353.500000 
	C331.950104,336.180115 331.705109,318.854492 332.101227,301.543579 
	C332.229919,295.920471 330.240356,293.656403 325.018036,292.371460 
	C302.585907,286.852020 280.232513,281.012268 257.852386,275.281738 
	C248.235199,272.819153 238.622711,270.338257 229.159027,267.904510 
	C228.019974,269.800354 228.347153,271.337036 228.346436,272.802673 
	C228.323471,319.599670 228.382095,366.396851 228.229141,413.193359 
	C228.214417,417.704254 229.731644,418.803131 233.991592,418.781860 
	C264.633728,418.628845 295.277679,418.587860 325.919098,418.798035 
	C330.911713,418.832306 332.061829,417.093353 332.012543,412.454071 
	C331.807220,393.138000 331.938019,373.818329 331.945984,353.500000 
M271.500000,544.807617 
	C296.482605,544.806152 321.465240,544.833069 346.447754,544.788147 
	C355.415771,544.772034 361.536377,539.303955 362.686035,530.458740 
	C364.977417,512.829407 367.181458,495.188293 369.577789,477.573303 
	C370.149353,473.372101 368.758636,471.910339 364.542999,471.981445 
	C353.553864,472.166748 342.559418,472.018799 331.567139,472.042603 
	C317.271240,472.073578 319.494934,470.151917 319.546021,484.712891 
	C319.595032,498.681976 310.284821,510.262756 296.436066,512.270569 
	C285.672180,513.831116 274.776398,513.564941 264.035309,512.759583 
	C248.664963,511.607208 239.451965,502.661865 237.098282,487.967010 
	C236.524734,484.386139 236.653625,480.651001 236.826096,477.004150 
	C236.998581,473.356659 235.631790,471.937256 231.943298,471.965424 
	C218.120895,472.070953 204.297028,471.975830 190.473709,471.982849 
	C189.335480,471.983429 188.111725,471.882843 186.674286,473.487518 
	C189.083054,492.031372 191.385925,511.129272 194.108765,530.167114 
	C195.556519,540.289673 201.322830,544.815247 211.541061,544.820435 
	C231.194046,544.830444 250.847015,544.813232 271.500000,544.807617 
M212.499954,461.687500 
	C263.495972,461.687683 314.491974,461.673584 365.487976,461.718079 
	C369.134369,461.721283 372.460510,461.768524 371.547333,456.588684 
	C369.429962,444.578400 363.254333,435.751617 351.721558,430.987518 
	C346.160950,428.690491 340.409729,428.823608 334.560883,428.836884 
	C295.897461,428.924561 257.233765,428.871033 218.570160,428.892670 
	C216.076492,428.894073 213.563080,428.982513 211.092697,429.296631 
	C198.082428,430.950958 185.722733,444.253967 185.275360,456.727386 
	C185.146744,460.313538 186.149719,461.880402 190.003799,461.755157 
	C197.162354,461.522491 204.333832,461.687347 212.499954,461.687500 
M139.145676,141.878983 
	C139.578186,140.446121 140.045990,139.022827 140.436844,137.578705 
	C141.862595,132.310867 141.213776,131.347092 135.687927,130.429352 
	C125.961151,128.813919 116.220177,134.845764 113.408081,144.791519 
	C109.427826,158.868774 105.720154,173.026947 102.136070,187.211197 
	C99.131485,199.102066 105.094330,208.158569 117.127266,211.044449 
	C120.050270,211.745468 121.057426,210.806641 121.719864,208.267776 
	C127.427437,186.393005 133.181122,164.530273 139.145676,141.878983 
M303.529358,498.082764 
	C310.154541,492.793610 309.662720,485.412781 309.796692,478.011230 
	C309.879333,473.446564 308.475769,471.897949 303.877380,471.962280 
	C288.743652,472.174042 273.604889,472.010773 258.468109,472.028473 
	C245.715134,472.043396 247.157837,470.321259 247.156525,483.477417 
	C247.155365,495.206757 254.341705,502.508667 265.996613,502.671997 
	C274.145599,502.786194 282.297699,502.724487 290.448059,502.677155 
	C295.047729,502.650452 299.343018,501.574585 303.529358,498.082764 
M140.296509,177.627045 
	C137.102936,189.781860 133.909378,201.936691 130.682114,214.219742 
	C136.259811,216.467545 141.487823,217.232941 146.383163,218.464584 
	C148.046295,217.297165 148.168198,215.700302 148.539413,214.309097 
	C154.240860,192.941925 159.931747,171.571732 165.540421,150.180054 
	C168.525253,138.795776 168.393814,138.992630 156.999008,135.923874 
	C152.568207,134.730606 151.167923,136.113541 150.158096,140.177658 
	C147.111053,152.440826 143.708221,164.615585 140.296509,177.627045 
M211.269272,336.261169 
	C213.153244,337.211151 214.907089,338.637268 217.335281,337.961761 
	C218.382782,336.083496 218.076797,334.048462 218.082367,332.087555 
	C218.120132,318.770294 218.026047,305.452087 218.158432,292.135986 
	C218.234482,284.487213 218.718033,276.842072 218.094238,269.195923 
	C217.932236,267.210480 218.095016,265.033783 215.533569,264.363373 
	C210.455368,263.034271 205.364700,261.752808 200.579025,260.528351 
	C198.856323,262.783966 199.335678,264.683655 199.331497,266.464111 
	C199.293930,282.444885 199.319489,298.425781 199.305069,314.406647 
	C199.296799,323.579163 202.898026,330.821381 211.269272,336.261169 
M54.063850,150.723557 
	C47.394867,149.685532 41.117577,146.726120 34.242863,146.623367 
	C38.769516,148.292969 43.367924,149.666199 48.035553,150.737976 
	C63.057964,154.187454 75.518913,161.635422 84.560036,174.252487 
	C86.820183,177.406555 89.744026,177.996582 93.459297,178.303879 
	C96.558327,170.130188 98.178741,161.635300 100.428635,153.338730 
	C100.922691,151.516876 102.887917,149.003250 100.389549,147.438507 
	C98.041985,145.968216 95.322968,145.124466 92.354393,146.550140 
	C80.390076,152.296127 67.864777,153.623291 54.063850,150.723557 
M173.492889,159.559601 
	C173.317261,161.364822 171.703812,163.648438 174.781174,164.483688 
	C182.087296,166.466736 189.425598,168.331284 197.077835,170.329071 
	C198.194687,166.099991 199.129059,162.436508 200.140442,158.794388 
	C200.540390,157.354065 200.576614,156.007660 198.937317,155.528519 
	C191.543976,153.367615 184.148636,151.187042 176.289169,149.821640 
	C175.348801,153.148102 174.542755,155.999390 173.492889,159.559601 
M173.961792,200.722336 
	C162.581467,197.774765 162.659882,197.789673 160.587997,208.686432 
	C160.076385,211.377182 160.762726,212.765106 163.386841,213.418915 
	C167.888870,214.540634 172.376175,215.726883 176.846298,216.970078 
	C184.102158,218.988022 183.790924,220.654190 186.394608,211.441132 
	C188.332092,204.585403 188.228409,204.534164 181.496353,202.648102 
	C179.264252,202.022751 176.994598,201.531448 173.961792,200.722336 
M191.026260,193.123459 
	C191.801376,190.406754 192.569901,187.688141 193.353348,184.973846 
	C194.234039,181.922607 193.625824,179.889511 190.112000,179.053802 
	C184.454361,177.708206 178.877777,176.024826 173.250839,174.545517 
	C171.290146,174.030075 169.625549,174.233032 169.048233,176.695038 
	C168.186111,180.371674 167.205795,184.020599 166.162964,188.125244 
	C174.659241,190.115158 182.272095,193.402069 191.026260,193.123459 
M176.202637,243.550919 
	C180.629120,239.661530 179.647888,234.045029 181.398041,229.053131 
	C174.063736,226.310776 166.915146,224.887970 159.890091,223.030060 
	C157.804962,222.478607 156.936722,223.271973 156.229294,225.182068 
	C153.944717,231.350449 157.463089,238.171875 164.437057,240.462723 
	C168.058456,241.652283 171.780289,242.536041 176.202637,243.550919 
M203.405640,144.821182 
	C204.424042,141.681595 205.504135,138.560181 206.437195,135.395416 
	C206.978302,133.560135 206.389175,132.022476 204.416443,131.506149 
	C200.104675,130.377563 195.809479,128.975723 191.415024,128.429794 
	C186.651901,127.838043 181.860306,131.320023 180.004776,135.700577 
	C179.198288,137.604599 178.869995,139.602585 181.259506,140.148376 
	C188.468109,141.794907 195.318604,144.959381 203.405640,144.821182 
z"/>
<path fill="#000000" opacity="1.000000" stroke="none" 
	d="
M290.457306,191.598816 
	C270.746277,186.533600 251.432632,181.573975 232.110809,176.646439 
	C228.450439,175.712967 224.999451,174.279144 226.245636,169.719360 
	C227.445709,165.328339 231.188507,166.042435 234.534775,166.899948 
	C258.040741,172.923431 281.539246,178.975922 305.038086,185.027100 
	C337.394440,193.359192 369.749084,201.698029 402.103912,210.035950 
	C403.070435,210.285019 404.032745,210.550873 404.994354,210.818527 
	C408.497925,211.793701 410.042053,214.200104 409.090607,217.609863 
	C408.146057,220.994888 405.520691,221.493103 402.317474,220.645737 
	C391.555389,217.798859 380.760284,215.077042 369.984863,212.280273 
	C343.605103,205.433426 317.229248,198.571426 290.457306,191.598816 
z"/>
<path fill="#000000" opacity="1.000000" stroke="none" 
	d="
M258.730408,212.426392 
	C247.221085,209.483963 236.116013,206.615173 225.004761,203.770447 
	C221.297089,202.821182 217.339142,201.790710 218.755066,196.725159 
	C220.122009,191.834839 224.237503,193.211914 227.505356,194.045593 
	C254.729111,200.990662 281.918549,208.070206 309.120361,215.101196 
	C338.088409,222.588730 367.049438,230.103912 396.039703,237.504349 
	C399.683624,238.434555 402.658783,239.881897 401.741486,244.081238 
	C400.795654,248.411179 397.402893,248.347900 393.788300,247.407959 
	C366.123657,240.213791 338.443054,233.080933 310.770752,225.916214 
	C293.554932,221.458817 276.344879,216.979126 258.730408,212.426392 
z"/>
<path fill="#000000" opacity="1.000000" stroke="none" 
	d="
M244.181427,296.543427 
	C246.030548,294.542053 247.847565,293.554749 250.188126,294.709442 
	C252.589920,295.894318 253.267685,297.986237 253.266281,300.501221 
	C253.248672,332.132385 253.258301,363.763580 253.241226,395.394745 
	C253.239517,398.553192 252.157257,401.055328 248.552078,401.281769 
	C244.636993,401.527710 243.430374,398.861298 242.985962,395.610718 
	C242.851547,394.627441 242.894821,393.616760 242.894958,392.618652 
	C242.898972,362.985107 242.907715,333.351562 242.916061,303.718018 
	C242.916718,301.385773 242.842514,299.041718 244.181427,296.543427 
z"/>
</svg>