<svg width="484" height="301" xmlns="http://www.w3.org/2000/svg">
 <g>
  <title>Layer 1</title>
  <g id="svg_1" stroke="null">
   <path id="svg_2" fill="#000000" d="m164.45721,0.82887c42.01092,-5.21395 76.81699,14.3734 94.56012,53.02694c12.29352,26.78152 24.44873,53.62649 36.68243,80.43554c3.17539,6.95853 5.07529,14.10978 3.24155,21.78052c-0.88919,3.71961 0.72092,4.68344 4.15723,4.65036c11.49881,-0.11075 22.99935,-0.03549 34.49926,-0.03421c45.4997,0.00516 90.99936,0.00611 136.49906,0.01648c8.35077,0.00192 9.52557,1.17664 9.54596,9.49979c0.013,5.33325 0.21319,10.67849 -0.06769,15.9974c-0.63849,12.09296 -5.83734,21.34092 -17.25849,26.49054c-5.46563,2.46442 -10.8471,5.12082 -16.35363,7.48816c-15.14026,6.50894 -31.97809,-0.50674 -37.7572,-15.90542c-1.21686,-3.24238 -2.89515,-4.31916 -6.19892,-4.3154c-58.83282,0.06683 -117.68957,-0.95844 -176.48981,0.42938c-35.8182,0.84534 -71.61029,0.67654 -107.40873,0.80392c-45.42214,0.16165 -85.00101,-34.89154 -91.1698,-79.74472c-0.31595,-2.29721 -0.80518,-4.57055 -1.21305,-6.85116c-8.23588,1.0997 -11.81394,10.88211 -9.49667,25.79034c0.73256,0.94126 1.80049,0.66294 2.76703,0.76444c5.97838,0.6278 6.76767,1.57739 6.806,7.47052c0.11267,17.32696 0.30025,34.65341 0.42905,51.98028c0.02954,3.97486 -0.22858,7.8624 -5.61631,9.23264c5.29258,8.63727 9.38639,17.42035 15.9466,24.5639c7.45211,8.11478 17.19754,11.19202 27.92048,11.21307c41.66623,0.08185 83.33271,0.02182 124.99909,0.04404c19.59677,0.01044 33.30664,16.32739 30.03341,35.67197c-1.78656,10.55847 -12.56829,19.86069 -23.82556,19.93902c-27.1651,0.18915 -54.33203,0.13483 -81.49823,0.14347c-20.66627,0.00656 -41.33545,0.1669 -61.99817,-0.11716c-25.70756,-0.35339 -45.69438,-20.47983 -46.13813,-46.28461c-0.23207,-13.49603 -0.12326,-26.99966 -0.01265,-40.49856c0.02743,-3.34772 -0.51912,-5.43784 -4.56269,-5.2511c-3.69464,0.17065 -5.43838,-2.14969 -5.44364,-5.69953c-0.02791,-18.83291 -0.07386,-37.66629 0.02653,-56.49874c0.0323,-6.05802 4.98645,-5.61695 9.23125,-6.17063c1.39903,-3.70462 0.67871,-7.54913 0.64918,-11.27817c-0.09735,-12.29376 4.92047,-21.20336 16.59847,-25.81051c2.27929,-0.89923 3.29083,-2.06598 3.56677,-4.66046c4.47401,-42.06644 32.16493,-73.47687 73.31537,-83.43358c20.21245,-4.89061 40.40376,-9.86849 61.03453,-14.87876m-120.58077,81.1223c-3.34138,10.76041 -4.6439,21.69852 -3.52012,32.97587c2.60505,26.14209 14.85922,46.61285 36.22969,61.57394c15.34785,10.74472 32.58769,14.93762 51.3334,14.73004c28.29116,-0.31323 56.59966,-0.18253 84.88481,0.46173c20.47928,0.46646 34.66748,-16.85702 24.63236,-37.38153c-12.64102,-25.85422 -24.6807,-52.03824 -35.94653,-78.5195c-12.5308,-29.45462 -44.58905,-55.62459 -86.34185,-51.7025c-31.78425,2.98566 -61.50135,26.46326 -71.27176,57.86195m3.62206,169.59589c-13.19426,-5.3378 -20.15878,-16.82516 -27.24431,-28.25873c-0.44627,1.67481 -0.45474,2.99216 -0.44493,4.30942c0.08424,11.31281 -0.99555,22.69183 1.06889,33.90695c3.35544,18.2283 19.34209,30.11344 40.38021,30.13919c44.32888,0.05432 88.65786,0.02817 132.98678,-0.00915c2.31443,-0.00192 4.67462,-0.19705 6.93476,-0.67475c9.39999,-1.9869 14.68301,-10.74231 12.21612,-20.03088c-2.50943,-9.44879 -10.50757,-15.52075 -20.70862,-15.52829c-41.32925,-0.03055 -82.65863,-0.06821 -123.98759,0.03616c-7.1006,0.01795 -13.93711,-0.81631 -21.20131,-3.88992m171.51874,-229.71564c-22.8837,-14.6949 -50.15155,-14.47584 -72.40125,-5.64636c31.2659,8.83078 52.89618,28.32099 65.22754,58.30029c3.03504,7.37873 6.59134,14.54288 9.89887,21.80985c1.03491,2.2738 2.26727,4.16702 5.26916,3.15826c11.79596,-3.96396 23.59412,-7.92135 35.59894,-11.95086c-0.37787,-1.38959 -0.50842,-2.37836 -0.90387,-3.24643c-4.75806,-10.44568 -9.38458,-20.95612 -14.38544,-31.28507c-6.23727,-12.88275 -15.55408,-23.12085 -28.30395,-31.13968m73.63586,148.68387c-13.98138,5.22162 -27.06045,12.41629 -41.38339,18.43088c9.88522,1.8284 18.34997,0.95053 25.82684,-2.46423c7.4162,-3.38712 14.84842,-6.74003 22.23642,-10.18753c3.24658,-1.51502 6.37067,-1.8544 8.0744,1.82455c1.72214,3.71866 -0.76202,5.86493 -3.85778,7.43216c-2.22144,1.12463 -4.79764,1.6738 -6.89463,3.81586c16.05802,1.21154 16.6417,1.08868 30.27243,-5.34842c5.71781,-2.70023 11.47095,-5.32587 17.21488,-7.97058c3.07321,-1.41501 6.01812,-1.46433 7.73437,1.8923c1.78824,3.49744 -0.37298,5.65384 -3.27411,7.18155c-2.51565,1.32471 -5.11081,2.4985 -8.48056,4.13135c11.35153,1.17703 21.2255,0.67163 30.52854,-4.71155c5.73715,-3.31976 12.01712,-5.70172 18.05432,-8.5026c3.13629,-1.45504 6.0802,-1.29229 7.64844,2.07376c1.57641,3.38352 -0.24335,5.72327 -3.36438,7.17258c-2.41602,1.12189 -4.84888,2.20737 -7.27426,3.30905c9.67526,0.81604 19.60909,2.92142 28.11636,0.33481c13.60168,-4.13547 26.25628,-11.38589 39.31134,-17.31946c-26.7815,-1.18048 -53.23651,-1.18496 -79.69153,-1.17923c-26.64493,0.00583 -53.28983,0.02186 -80.7977,0.08475m-43.65393,-14.39331c2.67633,7.03198 2.31638,14.23453 0.83502,21.31867c1.44251,0.65338 2.27466,-0.02228 3.15241,-0.42417c9.52362,-4.36047 18.94333,-8.96975 28.6065,-12.99472c5.02283,-2.09216 6.96293,-5.54257 7.59583,-10.59256c1.3269,-10.58767 -4.71402,-18.75561 -8.70334,-27.59796c-0.83203,-1.84424 -2.51849,-1.10767 -3.94934,-0.64288c-5.21564,1.6943 -10.44012,3.36233 -15.64139,5.09973c-6.56149,2.19177 -13.10351,4.44183 -20.19446,6.85034c2.83582,6.4585 5.42237,12.34924 8.29877,18.98355m219.70627,42.69263c6.21344,-7.26917 4.35962,-15.84784 4.39105,-24.15253c-0.78314,-0.09482 -1.16547,-0.26794 -1.41675,-0.15338c-16.02618,7.30508 -32.02746,14.66483 -48.07177,21.92969c-2.72565,1.23413 -2.54554,3.01425 -1.65851,5.25915c2.86798,7.25885 12.05999,12.80075 19.46582,10.49237c9.47754,-2.95413 18.72668,-6.77588 27.29016,-13.3753m-226.80869,-93.62165c-4.41293,1.65473 -9.1821,2.46582 -13.5101,5.09833c2.10593,4.75763 4.16403,8.93476 5.80679,13.26929c1.29606,3.41971 3.2721,4.08994 6.55433,2.93158c7.68588,-2.71252 15.40701,-5.33225 23.1629,-7.83768c11.74185,-3.79309 11.75928,-3.7381 6.73068,-14.83038c-0.48065,-1.06015 -1.03454,-2.09534 -1.4176,-3.18994c-1.13525,-3.2442 -3.1236,-3.68149 -6.24191,-2.54492c-6.71839,2.44866 -13.55295,4.57861 -21.08509,7.10372m-229.60733,94.0354c8.93366,0.19443 7.65195,0.75419 7.69081,-7.64193c0.05475,-11.82266 -0.10174,-23.64761 0.08391,-35.46762c0.05886,-3.74729 -1.26256,-4.93625 -4.92723,-4.89231c-3.62155,0.04346 -5.55019,0.82172 -5.4938,4.98993c0.17566,12.98609 0.04422,25.97617 0.08181,38.96454c0.00454,1.5607 -0.49665,3.50577 2.5645,4.04739z" stroke="null"/>
   <path id="svg_3" fill="#000000" d="m108.34844,54.69184c24.05448,-6.14058 46.52518,1.98397 60.67756,21.70623c12.46951,17.37708 12.65313,42.16233 0.45339,61.19443c-11.73388,18.30533 -35.09655,28.09775 -56.44969,23.66077c-22.50688,-4.6767 -39.41597,-21.85056 -43.12825,-43.80359c-4.82396,-28.52713 9.92847,-52.82867 38.44699,-62.75784m59.72202,57.41497c3.03836,-33.04974 -26.77356,-53.26098 -51.28996,-48.97534c-17.34525,3.03208 -32.04264,16.05957 -36.6659,33.94794c-4.24594,16.42847 2.61734,35.38834 16.32756,45.77319c26.94988,20.41315 66.53855,5.36319 71.6283,-30.74579z" stroke="null"/>
  </g>
 </g>

</svg>