<svg aria-hidden="true" style="position: absolute; width: 0; height: 0; overflow: hidden;" version="1.1" xmlns="http://www.w3.org/2000/svg" xmlns:xlink="http://www.w3.org/1999/xlink">
<defs>
<symbol id="icon-contract" viewBox="0 0 32 32">
<path d="M9.879 31.775h-8.83c-0.581 0-1.031-0.469-1.031-1.050v-8.698c-0.019-0.281-0.037-0.206 0-0.487v-6.28c0-2.006 1.65-3.637 3.656-3.637h2.343c2.718 0 4.93 2.193 4.93 4.93v2.081h3.637c0.506 0 0.975 0.112 1.406 0.281 0.45-0.169 0.9-0.244 1.387-0.244h3.693v-2.118c0-2.737 2.212-4.93 4.949-4.93h2.325c2.006 0 3.656 1.631 3.656 3.637v15.503c-0.038 0.544-0.506 1.012-1.069 1.012h-8.848c-0.581 0-1.031-0.469-1.031-1.050v-6.711h-10.123v6.749c0 0.544-0.469 1.012-1.050 1.012zM18.859 5.549h-5.755c-0.469 0-0.469-0.731 0-0.731h5.755c0.487 0 0.487 0.731 0 0.731zM18.859 3.243h-5.755c-0.469 0-0.469-0.731 0-0.731h5.755c0.487 0 0.487 0.731 0 0.731zM12.841 10.123c-0.206 0-0.356-0.15-0.356-0.375v-1.931c-0.675-0.019-1.2-0.581-1.2-1.218v-5.155c0-0.675 0.544-1.218 1.219-1.218h6.955c0.675 0 1.218 0.544 1.218 1.218v5.155c0 0.675-0.544 1.218-1.218 1.218h-4.48l-1.837 2.193c-0.056 0.075-0.169 0.112-0.3 0.112zM12.504 0.975c-0.244 0-0.487 0.206-0.487 0.487v5.155c0 0.862 1.2 0.15 1.2 0.862v1.275l1.293-1.537c0.075-0.075 0.187-0.131 0.3-0.131h4.612c0.262 0 0.506-0.206 0.506-0.487v-5.155c0-0.262-0.206-0.487-0.506-0.487h-6.917v0.019zM26.507 10.723c-2.343 0-4.237-1.893-4.237-4.237s1.893-4.237 4.237-4.237c2.343 0 4.237 1.893 4.237 4.237s-1.893 4.237-4.237 4.237zM26.507 2.981c-1.931 0-3.506 1.556-3.506 3.506 0 1.931 1.556 3.524 3.506 3.524s3.506-1.575 3.506-3.524c0-1.95-1.575-3.506-3.506-3.506zM5.455 10.723c-2.325 0-4.255-1.893-4.255-4.237s1.931-4.255 4.255-4.255c2.343 0 4.255 1.893 4.255 4.237 0 2.362-1.912 4.255-4.255 4.255zM5.455 2.981c-1.912 0-3.506 1.556-3.506 3.506 0 1.931 1.556 3.524 3.506 3.524 1.931 0 3.524-1.575 3.524-3.524-0.037-1.95-1.593-3.506-3.524-3.506zM19.777 23.302v-3.881c-0.562 0-2.456-0.038-2.887 0.038 0.825 0.675 1.35 1.687 1.35 2.812v1.031h1.537zM20.49 19.421v3.881h9.129c0.9 0 1.593-0.712 1.593-1.593v-6.449c0-1.593-1.294-2.887-2.887-2.887h-2.343c-2.306 0-4.18 1.875-4.18 4.18v2.118h5.23c0.15 0 0.281-0.131 0.281-0.3v-2.25c0-0.487 0.731-0.487 0.731 0v2.25c0 0.581-0.469 1.050-1.050 1.050h-6.505zM29.619 24.014h-7.855v6.749c0 0.15 0.131 0.281 0.3 0.281h8.867c0.15 0 0.281-0.131 0.281-0.281v-7.349c-0.412 0.375-0.975 0.6-1.593 0.6zM11.473 23.264v-3.881h-6.524c-0.581 0-1.012-0.469-1.012-1.031v-2.268c0-0.487 0.712-0.487 0.712 0v2.268c0 0.15 0.131 0.281 0.3 0.281h5.268v-2.081c0-2.306-1.875-4.18-4.18-4.18h-2.343c-1.593 0-2.887 1.293-2.887 2.887v6.917c0.206 0.637 0.806 1.087 1.5 1.087h9.167zM12.204 19.384v3.881h5.249v-0.994c0-1.575-1.294-2.887-2.887-2.887h-2.362zM0.806 23.452v7.311c0 0.15 0.131 0.281 0.281 0.281h8.792c0.169 0 0.3-0.131 0.3-0.281v-6.749h-7.836c-0.581 0-1.125-0.206-1.537-0.562z"></path>
</symbol>
<symbol id="icon-drill" viewBox="0 0 32 32">
<path d="M21.689 24.483c-0.075 0-0.15-0.019-0.206-0.038-0.225-0.131-0.319-0.394-0.187-0.637 0.187-0.3 0.131-0.9 0.112-1.106l-2.475-7.911c-0.075-0.244 0.056-0.506 0.281-0.581 0.244-0.075 0.506 0.056 0.581 0.3l2.493 7.93c0 0 0 0.019 0 0.019 0.019 0.15 0.15 1.125-0.187 1.762-0.094 0.187-0.262 0.262-0.412 0.262z"></path>
<path d="M27.201 24.483c-0.169 0-0.356-0.131-0.431-0.3l-2.475-8.023c-0.112-0.3-0.131-0.506 0.075-0.9 0.319-0.675 0.919-0.881 0.994-0.919 0.225-0.075 0.487 0.056 0.562 0.281 0.075 0.244-0.038 0.506-0.281 0.581-0.019 0-0.319 0.131-0.469 0.469-0.056 0.112-0.075 0.15-0.075 0.15s0.019 0.056 0.019 0.112c0 0.056 0.038 0.075 0.056 0.131l2.418 7.873c0.075 0.244-0.056 0.506-0.319 0.581 0-0.038-0.038-0.038-0.075-0.038z"></path>
<path d="M26.095 15.091h-11.941c-0.262 0-0.469-0.206-0.469-0.469v-10.835c0-0.262 0.206-0.469 0.469-0.469h11.941c3.243 0 5.905 2.662 5.905 5.886 0 3.262-2.662 5.886-5.905 5.886zM14.585 14.191h11.51c2.756 0 4.987-2.231 4.987-4.987 0-2.737-2.231-4.968-4.987-4.968h-11.51v9.954z"></path>
<path d="M14.153 14.060h-3.937c-0.262 0-0.469-0.206-0.469-0.469v-8.773c0-0.244 0.206-0.45 0.469-0.45h3.899c0.262 0 0.469 0.206 0.469 0.45 0 0.262-0.206 0.469-0.469 0.469h-3.431v7.892h3.468c0.262 0 0.469 0.206 0.469 0.469s-0.206 0.412-0.469 0.412z"></path>
<path d="M10.217 11.285h-3.262c-0.262 0-0.469-0.225-0.469-0.469 0-0.262 0.206-0.469 0.469-0.469h3.262c0.262 0 0.469 0.206 0.469 0.469 0 0.244-0.206 0.469-0.469 0.469zM10.217 8.136h-3.262c-0.262 0-0.469-0.206-0.469-0.469s0.206-0.469 0.469-0.469h3.262c0.262 0 0.469 0.206 0.469 0.469s-0.206 0.469-0.469 0.469z"></path>
<path d="M6.955 11.454h-2.4c-1.218 0-2.231-0.975-2.231-2.212 0-1.219 1.012-2.231 2.231-2.231h2.4c0.244 0 0.469 0.206 0.469 0.469v3.543c0 0.225-0.225 0.431-0.469 0.431zM4.555 7.93c-0.731 0-1.331 0.581-1.331 1.312s0.6 1.312 1.331 1.312h1.95v-2.624h-1.95z"></path>
<path d="M2.793 9.692h-2.325c-0.262 0-0.469-0.206-0.469-0.469s0.206-0.469 0.469-0.469h2.325c0.244 0 0.469 0.206 0.469 0.469s-0.225 0.469-0.469 0.469z"></path>
<path d="M30.144 28.682h-12.148c-0.769 0-1.425-0.656-1.425-1.443v-2.231c0-0.787 0.656-1.425 1.425-1.425h12.129c0.769 0 1.425 0.637 1.425 1.425v2.231c0.019 0.806-0.619 1.443-1.406 1.443zM17.997 24.483c-0.281 0-0.525 0.244-0.525 0.525v2.231c0 0.3 0.244 0.525 0.525 0.525h12.129c0.281 0 0.506-0.225 0.506-0.525v-2.231c0-0.281-0.225-0.525-0.506-0.525h-12.129z"></path>
<path d="M20.865 12.241h-3.937c-0.262 0-0.469-0.206-0.469-0.469v-5.118c0-0.262 0.206-0.469 0.469-0.469h3.937c0.262 0 0.469 0.206 0.469 0.469v5.118c0 0.262-0.206 0.469-0.469 0.469zM17.397 11.323h3.018v-4.237h-3.018v4.237z"></path>
<path d="M27.707 7.33h-4.462c-0.244 0-0.469-0.206-0.469-0.469s0.225-0.469 0.469-0.469h4.462c0.244 0 0.469 0.206 0.469 0.469s-0.225 0.469-0.469 0.469z"></path>
<path d="M27.707 9.673h-4.462c-0.244 0-0.469-0.225-0.469-0.469 0-0.262 0.225-0.469 0.469-0.469h4.462c0.244 0 0.469 0.206 0.469 0.469 0 0.244-0.225 0.469-0.469 0.469z"></path>
<path d="M27.707 12.035h-4.462c-0.244 0-0.469-0.206-0.469-0.469s0.225-0.469 0.469-0.469h4.462c0.244 0 0.469 0.206 0.469 0.469s-0.225 0.469-0.469 0.469z"></path>
<path d="M19.515 18.034c-0.731 0-1.593-0.262-2.287-0.731-1.031-0.637-1.537-1.575-1.537-2.643 0-0.262 0.206-0.469 0.469-0.469s0.469 0.206 0.469 0.469c0 0.956 0.6 1.556 1.106 1.893 0.844 0.544 1.875 0.675 2.343 0.469 0.244-0.094 0.506 0 0.6 0.244 0.112 0.225 0 0.487-0.225 0.6-0.3 0.112-0.6 0.169-0.937 0.169z"></path>
<path d="M26.863 26.976h-9.823c-0.262 0-0.469-0.206-0.469-0.469 0-0.244 0.206-0.45 0.469-0.45h9.823c0.262 0 0.469 0.206 0.469 0.45 0 0.262-0.206 0.469-0.469 0.469z"></path>
<path d="M24.97 22.721c-0.187 0-0.356-0.131-0.45-0.319l-1.762-5.661c-0.075-0.244 0.056-0.487 0.319-0.581 0.225-0.075 0.487 0.056 0.562 0.319l1.781 5.661c0.075 0.244-0.056 0.506-0.319 0.581-0.056 0-0.075 0-0.131 0z"></path>
</symbol>
<symbol id="icon-garage" viewBox="0 0 32 32">
<path d="M30.5 5c0.276 0 0.5-0.224 0.5-0.5v0-3c0-0.276-0.224-0.5-0.5-0.5v0h-29c-0.276 0-0.5 0.224-0.5 0.5v0 3c0 0.276 0.224 0.5 0.5 0.5v0h1v25h-1c-0.276 0-0.5 0.224-0.5 0.5s0.224 0.5 0.5 0.5v0h29c0.276 0 0.5-0.224 0.5-0.5s-0.224-0.5-0.5-0.5v0h-1v-25zM2 2h28v2h-28zM5.5 19h21v3h-21zM5.5 15h21v3h-21zM26.5 14h-21v-3h21zM5.5 23h21v3h-21zM26.5 10h-21v-3h21zM5.5 30v-3h21v3zM28.5 30h-1v-23.5c0-0.276-0.224-0.5-0.5-0.5v0h-22c-0.276 0-0.5 0.224-0.5 0.5v0 23.5h-1v-25h25z"></path>
<path d="M17.5 28.5h-3c-0.276 0-0.5 0.224-0.5 0.5s0.224 0.5 0.5 0.5v0h3c0.276 0 0.5-0.224 0.5-0.5s-0.224-0.5-0.5-0.5v0z"></path>
</symbol>
<symbol id="icon-blinds" viewBox="0 0 32 32">
<path d="M31 19.5c0.276 0 0.5-0.224 0.5-0.5v-18c0-0.276-0.224-0.5-0.5-0.5h-30c-0.276 0-0.5 0.224-0.5 0.5v18c0 0.276 0.224 0.5 0.5 0.5h0.5v9h-0.5c-0.276 0-0.5 0.224-0.5 0.5v2c0 0.276 0.224 0.5 0.5 0.5h30c0.276 0 0.5-0.224 0.5-0.5v-2c0-0.276-0.224-0.5-0.5-0.5h-0.5v-9h0.5zM25.5 18.5v-1h5v1h-5zM7.5 18.5v-1h17v1h-17zM1.5 18.5v-1h5v1h-5zM24.5 3.5v1h-17v-1h17zM7.5 2.5v-1h17v1h-17zM24.5 7.5v1h-17v-1h17zM7.5 6.5v-1h17v1h-17zM24.5 9.5v1h-17v-1h17zM24.5 11.5v1h-17v-1h17zM24.5 13.5v1h-17v-1h17zM24.5 15.5v1h-17v-1h17zM25.5 15.5h5v1h-5v-1zM25.5 14.5v-1h5v1h-5zM25.5 12.5v-1h5v1h-5zM25.5 10.5v-1h5v1h-5zM25.5 8.5v-1h5v1h-5zM25.5 6.5v-1h5v1h-5zM25.5 4.5v-1h5v1h-5zM6.5 4.5h-5v-1h5v1zM6.5 5.5v1h-5v-1h5zM6.5 7.5v1h-5v-1h5zM6.5 9.5v1h-5v-1h5zM6.5 11.5v1h-5v-1h5zM6.5 13.5v1h-5v-1h5zM6.5 15.5v1h-5v-1h5zM4.5 19.5h2v1.092c-0.58 0.207-1 0.757-1 1.408 0 0.827 0.673 1.5 1.5 1.5s1.5-0.673 1.5-1.5c0-0.651-0.419-1.201-1-1.408v-1.092h6v6h-9v-6zM7.5 22c0 0.276-0.224 0.5-0.5 0.5s-0.5-0.224-0.5-0.5 0.224-0.5 0.5-0.5 0.5 0.224 0.5 0.5zM18.5 19.5h6v1.092c-0.581 0.207-1 0.757-1 1.408 0 0.827 0.673 1.5 1.5 1.5s1.5-0.673 1.5-1.5c0-0.651-0.419-1.201-1-1.408v-1.092h2v6h-9v-6zM25.5 22c0 0.276-0.224 0.5-0.5 0.5s-0.5-0.224-0.5-0.5 0.224-0.5 0.5-0.5 0.5 0.224 0.5 0.5zM30.5 2.5h-5v-1h5v1zM6.5 1.5v1h-5v-1h5zM2.5 19.5h1v6.5c0 0.276 0.224 0.5 0.5 0.5h10c0.276 0 0.5-0.224 0.5-0.5v-6.5h1v9h-13v-9zM30.5 30.5h-29v-1h29v1zM29.5 28.5h-13v-9h1v6.5c0 0.276 0.224 0.5 0.5 0.5h10c0.276 0 0.5-0.224 0.5-0.5v-6.5h1v9z"></path>
</symbol>
<symbol id="icon-electric" viewBox="0 0 32 32">
<path d="M2.49 5.696h0.881c0.153 0 0.278-0.124 0.278-0.277l0-2.65c0-0.153-0.125-0.277-0.278-0.277h-0.881v3.204zM3.371 6.313h-1.189c-0.17 0-0.309-0.138-0.309-0.308l0-3.821c0-0.171 0.138-0.308 0.308-0.308l1.189-0c0.494 0 0.894 0.401 0.894 0.894l0 2.65c0 0.493-0.401 0.894-0.894 0.894z"></path>
<path d="M26.075 2.492c-0.153 0-0.278 0.124-0.278 0.277l0 2.65c0 0.153 0.125 0.277 0.277 0.277l0.881-0v-3.204h-0.881zM27.264 6.313h-1.189c-0.493 0-0.894-0.401-0.894-0.894l0-2.65c0-0.493 0.401-0.894 0.894-0.894l1.189-0c0.17 0 0.308 0.138 0.308 0.308l0 3.821c0 0.17-0.138 0.308-0.308 0.308z"></path>
<path d="M25.489 3.359h-21.532c-0.17 0-0.308-0.138-0.308-0.308s0.138-0.308 0.308-0.308l21.532-0c0.17 0 0.308 0.138 0.308 0.308s-0.138 0.308-0.308 0.308zM25.489 5.445h-21.532c-0.17 0-0.308-0.138-0.308-0.308s0.138-0.308 0.308-0.308l21.532-0c0.17 0 0.308 0.138 0.308 0.308s-0.138 0.308-0.308 0.308z"></path>
<path d="M22.474 27.265h-19.873c-0.402 0-0.728-0.326-0.728-0.728l0-1.234c0-0.402 0.326-0.729 0.728-0.729l19.893-0c0.17 0 0.308 0.138 0.308 0.308s-0.138 0.308-0.308 0.308h-19.893c-0.060 0-0.111 0.051-0.111 0.112l0 1.234c0 0.060 0.051 0.111 0.111 0.111h19.873c0.17 0 0.308 0.138 0.308 0.308s-0.138 0.308-0.308 0.308z"></path>
<path d="M3.228 25.192c-0.17 0-0.308-0.138-0.308-0.308l0-18.879c0-0.17 0.138-0.308 0.308-0.308s0.308 0.138 0.308 0.308v18.879c0 0.17-0.138 0.308-0.308 0.308z"></path>
<path d="M26.218 14.031c-0.17 0-0.308-0.138-0.308-0.308v-7.718c0-0.17 0.138-0.308 0.308-0.308s0.308 0.138 0.308 0.308l0 7.718c0 0.17-0.138 0.308-0.308 0.308z"></path>
<path d="M24.1 27.008c-0.090 0-0.179-0.039-0.24-0.114-0.107-0.132-0.086-0.326 0.046-0.434 0.54-0.436 1.172-0.667 1.829-0.667s1.289 0.231 1.829 0.667c0.133 0.107 0.154 0.301 0.046 0.434s-0.301 0.153-0.434 0.046c-0.428-0.347-0.927-0.53-1.442-0.53s-1.013 0.183-1.442 0.53c-0.057 0.046-0.125 0.068-0.193 0.068z"></path>
<path d="M28.058 25.827c-0.069 0-0.138-0.023-0.195-0.070-0.63-0.516-1.365-0.788-2.127-0.788s-1.496 0.272-2.127 0.788c-0.132 0.108-0.326 0.089-0.434-0.043s-0.089-0.326 0.043-0.434c0.742-0.607 1.613-0.928 2.517-0.928s1.775 0.321 2.517 0.928c0.132 0.108 0.151 0.302 0.043 0.434-0.061 0.075-0.149 0.113-0.238 0.113z"></path>
<path d="M26.684 28.189c-0.067 0-0.134-0.021-0.19-0.066-0.227-0.179-0.49-0.273-0.759-0.273s-0.531 0.094-0.759 0.273c-0.134 0.105-0.328 0.082-0.432-0.052s-0.082-0.328 0.052-0.433c0.337-0.265 0.731-0.405 1.139-0.405s0.802 0.14 1.14 0.405c0.134 0.105 0.157 0.299 0.052 0.433-0.061 0.077-0.152 0.118-0.243 0.118z"></path>
<path d="M24.878 17.778h1.714l-0.857-1.505-0.857 1.505zM27.123 18.395h-2.776c-0.11 0-0.211-0.058-0.267-0.153s-0.056-0.213-0.001-0.308l1.388-2.436c0.055-0.096 0.157-0.155 0.268-0.155s0.213 0.059 0.268 0.155l1.388 2.436c0.055 0.095 0.054 0.213-0.001 0.308s-0.157 0.153-0.267 0.153z"></path>
<path d="M24.878 20.341l0.857 1.505 0.857-1.505h-1.714zM25.736 22.778c-0.11 0-0.213-0.059-0.268-0.155l-1.388-2.436c-0.055-0.096-0.054-0.213 0.001-0.308s0.157-0.154 0.267-0.154h2.776c0.11 0 0.211 0.058 0.267 0.154s0.056 0.212 0.001 0.308l-1.388 2.436c-0.055 0.096-0.157 0.155-0.268 0.155z"></path>
<path d="M25.736 14.027c-1.255 0-2.51 0.15-3.087 0.452-0.753 0.393-0.822 3.248-0.501 4.981 0.514 2.777 0.967 6.068 0.429 9.429-0.036 0.223-0.004 0.418 0.085 0.523 0.055 0.065 0.136 0.096 0.249 0.096h5.648c0.112 0 0.194-0.031 0.249-0.096 0.089-0.105 0.121-0.3 0.086-0.523-0.538-3.361-0.085-6.652 0.429-9.429 0.321-1.733 0.252-4.588-0.5-4.981-0.577-0.301-1.832-0.452-3.087-0.452zM28.56 30.125h-5.648c-0.296 0-0.544-0.108-0.719-0.313-0.211-0.247-0.291-0.61-0.225-1.020 0.523-3.269 0.078-6.495-0.426-9.22-0.276-1.489-0.452-4.976 0.821-5.64 1.356-0.707 5.39-0.707 6.745 0 1.273 0.664 1.097 4.152 0.822 5.64-0.504 2.725-0.95 5.951-0.426 9.22 0.066 0.411-0.015 0.773-0.226 1.020-0.174 0.205-0.423 0.313-0.718 0.313z"></path>
<path d="M26.218 8.22h-22.99c-0.17 0-0.308-0.137-0.308-0.308s0.138-0.308 0.308-0.308h22.99c0.17 0 0.308 0.138 0.308 0.308s-0.138 0.308-0.308 0.308z"></path>
<path d="M26.218 11.724h-22.99c-0.17 0-0.308-0.137-0.308-0.308s0.138-0.308 0.308-0.308h22.99c0.17 0 0.308 0.137 0.308 0.308s-0.138 0.308-0.308 0.308z"></path>
<path d="M21.974 15.228h-18.746c-0.17 0-0.308-0.138-0.308-0.308s0.138-0.308 0.308-0.308h18.746c0.171 0 0.308 0.137 0.308 0.308s-0.137 0.308-0.308 0.308z"></path>
<path d="M21.704 18.731h-18.476c-0.17 0-0.308-0.138-0.308-0.308s0.138-0.308 0.308-0.308h18.476c0.171 0 0.309 0.137 0.309 0.308s-0.138 0.308-0.309 0.308z"></path>
<path d="M13.713 25.192c-0.17 0-0.308-0.138-0.308-0.308l0-6.461c0-0.171 0.138-0.308 0.308-0.308s0.308 0.137 0.308 0.308v6.461c0 0.17-0.138 0.308-0.308 0.308z"></path>
<path d="M15.733 25.192c-0.17 0-0.308-0.138-0.308-0.308l0-6.461c0-0.171 0.138-0.308 0.308-0.308s0.308 0.137 0.308 0.308l0 6.461c0 0.17-0.138 0.308-0.308 0.308z"></path>
<path d="M13.713 22.678h-7.788c-0.17 0-0.308-0.138-0.308-0.308l0-3.947c0-0.171 0.138-0.308 0.308-0.308s0.308 0.137 0.308 0.308l0 3.638h7.479c0.17 0 0.308 0.137 0.308 0.308s-0.138 0.308-0.308 0.308z"></path>
<path d="M22.292 22.678h-6.559c-0.17 0-0.308-0.138-0.308-0.308s0.138-0.308 0.308-0.308h6.559c0.17 0 0.308 0.137 0.308 0.308s-0.138 0.308-0.308 0.308z"></path>
</symbol>
<symbol id="icon-mtape" viewBox="0 0 37 32">
<path d="M15.574 11.126c2.271-0.282 4.152 0.777 5.111 2.866 0.665 1.448 1.322 2.899 1.983 4.348 0.172 0.376 0.274 0.763 0.175 1.177-0.048 0.201 0.039 0.253 0.225 0.251 0.622-0.006 1.243-0.002 1.865-0.002 2.459 0 4.919 0 7.378 0.001 0.451 0 0.515 0.064 0.516 0.514 0.001 0.288 0.012 0.577-0.004 0.865-0.035 0.654-0.316 1.154-0.933 1.432-0.295 0.133-0.586 0.277-0.884 0.405-0.818 0.352-1.729-0.027-2.041-0.86-0.066-0.175-0.157-0.233-0.335-0.233-3.18 0.004-6.362-0.052-9.54 0.023-1.936 0.046-3.871 0.037-5.806 0.043-2.455 0.009-4.595-1.886-4.928-4.311-0.017-0.124-0.044-0.247-0.066-0.37-0.445 0.059-0.639 0.588-0.513 1.394 0.040 0.051 0.097 0.036 0.15 0.041 0.323 0.034 0.366 0.085 0.368 0.404 0.006 0.937 0.016 1.873 0.023 2.81 0.002 0.215-0.012 0.425-0.304 0.499 0.286 0.467 0.507 0.942 0.862 1.328 0.403 0.439 0.93 0.605 1.509 0.606 2.252 0.004 4.504 0.001 6.757 0.002 1.059 0.001 1.8 0.883 1.623 1.928-0.097 0.571-0.679 1.074-1.288 1.078-1.468 0.010-2.937 0.007-4.405 0.008-1.117 0-2.234 0.009-3.351-0.006-1.39-0.019-2.47-1.107-2.494-2.502-0.013-0.73-0.007-1.459-0.001-2.189 0.001-0.181-0.028-0.294-0.247-0.284-0.2 0.009-0.294-0.116-0.294-0.308-0.002-1.018-0.004-2.036 0.001-3.054 0.002-0.327 0.27-0.304 0.499-0.334 0.076-0.2 0.037-0.408 0.035-0.61-0.005-0.665 0.266-1.146 0.897-1.395 0.123-0.049 0.178-0.112 0.193-0.252 0.242-2.274 1.739-3.972 3.963-4.51 1.093-0.264 2.184-0.533 3.299-0.804zM9.056 15.511c-0.181 0.582-0.251 1.173-0.19 1.782 0.141 1.413 0.803 2.52 1.958 3.328 0.83 0.581 1.761 0.807 2.775 0.796 1.529-0.017 3.059-0.010 4.588 0.025 1.107 0.025 1.874-0.911 1.331-2.021-0.683-1.398-1.334-2.813-1.943-4.244-0.677-1.592-2.41-3.007-4.667-2.795-1.718 0.161-3.324 1.43-3.853 3.128zM9.252 24.678c-0.713-0.289-1.090-0.909-1.473-1.527-0.024 0.091-0.025 0.162-0.024 0.233 0.005 0.611-0.054 1.227 0.058 1.833 0.181 0.985 1.046 1.628 2.183 1.629 2.396 0.003 4.792 0.002 7.188-0 0.125-0 0.253-0.011 0.375-0.036 0.508-0.107 0.794-0.581 0.66-1.083-0.136-0.511-0.568-0.839-1.119-0.839-2.234-0.002-4.468-0.004-6.702 0.002-0.384 0.001-0.753-0.044-1.146-0.21zM18.523 12.261c-1.237-0.794-2.711-0.782-3.914-0.305 1.69 0.477 2.859 1.531 3.526 3.151 0.164 0.399 0.356 0.786 0.535 1.179 0.056 0.123 0.123 0.225 0.285 0.171 0.638-0.214 1.275-0.428 1.924-0.646-0.020-0.075-0.027-0.129-0.049-0.175-0.257-0.565-0.507-1.133-0.778-1.691-0.337-0.696-0.841-1.25-1.53-1.683zM22.503 20.298c-0.756 0.282-1.463 0.671-2.237 0.996 0.534 0.099 0.992 0.051 1.396-0.133 0.401-0.183 0.803-0.364 1.202-0.551 0.175-0.082 0.344-0.1 0.436 0.099 0.093 0.201-0.041 0.317-0.209 0.402-0.12 0.061-0.259 0.090-0.373 0.206 0.868 0.066 0.9 0.059 1.636-0.289 0.309-0.146 0.62-0.288 0.931-0.431 0.166-0.076 0.325-0.079 0.418 0.102 0.097 0.189-0.020 0.306-0.177 0.388-0.136 0.072-0.276 0.135-0.458 0.223 0.614 0.064 1.147 0.036 1.65-0.255 0.31-0.179 0.65-0.308 0.976-0.46 0.17-0.079 0.329-0.070 0.413 0.112s-0.013 0.309-0.182 0.388c-0.131 0.061-0.262 0.119-0.393 0.179 0.523 0.044 1.060 0.158 1.52 0.018 0.735-0.224 1.419-0.615 2.125-0.936-1.448-0.064-2.878-0.064-4.308-0.064-1.44 0-2.881 0.001-4.367 0.005zM20.144 19.52c0.145 0.38 0.125 0.769 0.045 1.152 0.078 0.035 0.123-0.001 0.17-0.023 0.515-0.236 1.024-0.485 1.546-0.702 0.271-0.113 0.376-0.3 0.411-0.573 0.072-0.572-0.255-1.014-0.47-1.492-0.045-0.1-0.136-0.060-0.213-0.035-0.282 0.092-0.564 0.182-0.845 0.276-0.355 0.118-0.708 0.24-1.092 0.37 0.153 0.349 0.293 0.668 0.449 1.026zM32.020 21.828c0.336-0.393 0.236-0.857 0.237-1.306-0.042-0.005-0.063-0.014-0.077-0.008-0.866 0.395-1.731 0.793-2.598 1.185-0.147 0.067-0.138 0.163-0.090 0.284 0.155 0.392 0.652 0.692 1.052 0.567 0.512-0.16 1.012-0.366 1.475-0.723zM19.76 16.767c-0.239 0.089-0.496 0.133-0.73 0.276 0.114 0.257 0.225 0.483 0.314 0.717 0.070 0.185 0.177 0.221 0.354 0.158 0.415-0.147 0.833-0.288 1.252-0.424 0.635-0.205 0.636-0.202 0.364-0.802-0.026-0.057-0.056-0.113-0.077-0.172-0.061-0.175-0.169-0.199-0.337-0.138-0.363 0.132-0.733 0.247-1.14 0.384zM7.348 21.85c0.483 0.011 0.414 0.041 0.416-0.413 0.003-0.639-0.005-1.278 0.005-1.917 0.003-0.203-0.068-0.267-0.266-0.264-0.196 0.002-0.3 0.044-0.297 0.27 0.010 0.702 0.002 1.404 0.004 2.106 0 0.084-0.027 0.189 0.139 0.219z"></path>
<path d="M12.541 14.037c1.3-0.332 2.515 0.107 3.28 1.173 0.674 0.939 0.684 2.279 0.024 3.308-0.634 0.989-1.897 1.519-3.051 1.279-1.217-0.253-2.131-1.181-2.331-2.368-0.261-1.542 0.537-2.856 2.078-3.392zM15.769 17.141c0.164-1.786-1.447-2.879-2.772-2.647-0.938 0.164-1.732 0.868-1.982 1.835-0.229 0.888 0.141 1.913 0.883 2.474 1.457 1.103 3.597 0.29 3.872-1.662z"></path>
</symbol>
<symbol id="icon-close" viewBox="0 0 32 32">
<path stroke-linejoin="miter" stroke-linecap="butt" stroke-miterlimit="4" stroke-width="2.1333" d="M8.533 8.533l14.933 14.933"></path>
<path stroke-linejoin="miter" stroke-linecap="butt" stroke-miterlimit="4" stroke-width="2.1333" d="M8.533 23.467l14.933-14.933"></path>
</symbol>
<symbol id="icon-heart" viewBox="0 0 34 32">
<path d="M17.231 31.705l-2.412-2.412c-8.96-7.926-14.818-13.268-14.818-19.815 0-5.342 4.135-9.477 9.477-9.477 2.929 0 5.858 1.378 7.754 3.618 1.895-2.24 4.825-3.618 7.754-3.618 5.342 0 9.477 4.135 9.477 9.477 0 6.548-5.858 11.889-14.818 19.815l-2.412 2.412z"></path>
</symbol>
<symbol id="icon-arrow-left" viewBox="0 0 32 32">
<path stroke-linejoin="round" stroke-linecap="round" stroke-miterlimit="4" stroke-width="2.6667" d="M6.667 16h18.667"></path>
<path stroke-linejoin="round" stroke-linecap="round" stroke-miterlimit="4" stroke-width="2.6667" d="M16 25.334l9.333-9.333-9.333-9.333"></path>
</symbol>
</defs>
</svg>
