<svg width="483" height="437" xmlns="http://www.w3.org/2000/svg" version="1.1" enable-background="new 0 0 512 608" xml:space="preserve">
 <g>
  <title>Layer 1</title>
  <path fill="#000000" d="m358.97059,335.05168c1.39575,8.59521 -0.99866,16.6246 -1.14535,24.54788c1.77447,1.729 3.70465,1.11679 5.45761,1.12131c17.83108,0.04544 35.66278,-0.04819 53.49322,0.0664c9.8544,0.06333 18.14227,6.30414 20.65479,15.15854c2.74673,9.67966 -0.96338,19.64725 -9.32624,24.81394c-3.77524,2.33233 -7.97912,3.27905 -12.38784,3.29449c-7.499,0.02637 -14.999,-0.06024 -22.49698,0.03064c-6.83533,0.08283 -12.03958,5.0545 -12.08185,11.34235c-0.0415,6.17443 5.24506,11.17462 12.18567,11.18847c26.6633,0.05347 53.32678,0.00421 79.9902,0.02265c1.98911,0.0014 4.04846,-0.04602 5.94965,0.4303c2.48199,0.6217 3.95678,2.37518 3.77865,5.15081c-0.17688,2.75623 -1.78595,4.23322 -4.36786,4.664c-1.30279,0.21735 -2.65786,0.16138 -3.98931,0.16089c-26.83008,-0.00976 -53.66019,-0.00909 -80.49024,-0.05542c-13.97311,-0.02417 -22.88013,-8.6831 -22.86554,-22.12011c0.01352,-12.46296 9.2937,-21.05582 22.85806,-21.12494c7.16565,-0.03653 14.33246,0.05526 21.49711,-0.03821c7.37387,-0.09622 12.84002,-5.02347 12.71408,-11.28159c-0.1326,-6.58862 -5.30646,-11.28039 -12.63623,-11.2948c-17.99775,-0.03534 -35.99973,0.20774 -53.99097,-0.1358c-5.46558,-0.10434 -6.20511,2.61179 -6.7038,6.86118c-1.49209,12.71347 -2.8645,25.46057 -4.99734,38.07385c-2.14487,12.68463 -12.58026,21.06042 -25.42661,21.07355c-45.66107,0.04663 -91.32228,0.03222 -136.98331,-0.04474c-13.57052,-0.02289 -24.12808,-9.16858 -25.94767,-22.98114c-3.01696,-22.90183 -5.65643,-45.85437 -8.33142,-68.79996c-2.61051,-22.39261 14.18162,-42.69827 37.33873,-44.46579c4.44894,-0.33957 5.17236,-2.11874 5.15376,-5.8728c-0.09573,-19.33036 -0.12094,-38.6623 0.05513,-57.99167c0.03656,-4.01444 -1.32523,-5.75244 -5.21642,-7.01163c-14.87176,-4.81247 -23.29943,-16.78464 -23.33401,-32.41183c-0.03871,-17.49778 -0.14265,-34.99729 0.07368,-52.49244c0.05082,-4.108 -1.2626,-5.96609 -5.25363,-6.85778c-7.13952,-1.59513 -14.16998,-3.67713 -21.24951,-5.54238c-9.6519,-2.54304 -15.60562,-8.65199 -17.3269,-18.50276c-0.45655,-2.61279 -1.61812,-3.62643 -4.00893,-4.23007c-9.03235,-2.28044 -18.04231,-4.65621 -27.02388,-7.12981c-16.53221,-4.55307 -23.60682,-13.92837 -23.9961,-32.42676c-9.90509,0.42759 -13.7665,-7.87097 -19.38453,-13.96666c-7.16994,-7.77955 -16.57596,-11.48899 -26.5662,-14.02368c-5.00011,-1.26861 -10.01243,-2.5002 -14.97262,-3.91229c-6.50702,-1.85245 -8.69015,-5.39661 -7.24169,-11.38957c1.69237,-7.0022 6.72818,-11.00819 12.79076,-9.70117c6.01315,1.29635 11.93679,3.01721 17.88186,4.61807c12.57253,3.38548 24.77085,2.64947 36.35345,-3.55287c3.69969,-1.98114 7.09882,-1.11249 10.5733,0.12588c3.1258,1.11408 4.99346,0.39195 6.92346,-2.58795c7.46889,-11.53192 19.86631,-16.14884 33.47765,-12.78171c8.88173,2.19714 17.76195,4.42908 26.54349,6.98662c3.00261,0.87448 4.80566,0.4915 6.84485,-1.94688c6.15468,-7.35949 14.05227,-9.58143 23.3369,-7.18391c74.42578,19.21861 148.86395,38.38943 223.28277,57.63496c29.00525,7.5011 46.24371,30.04594 44.4993,58.70189c-0.72086,11.84104 -5.19699,22.9853 -8.04477,34.42405c-3.59033,14.4213 -11.85492,25.62793 -24.57425,33.25998c-12.81247,7.68796 -26.60962,10.20416 -41.29291,6.45215c-14.02026,-3.58261 -28.03436,-7.18927 -42.05709,-10.76208c-1.90833,-0.48621 -3.85108,-0.83738 -5.57819,-1.2082c-1.93765,1.75632 -1.30127,3.71064 -1.30286,5.43766c-0.03378,36.49554 0.0376,72.9913 -0.08557,109.48645c-0.01391,4.12561 0.82907,6.04873 5.40628,6.92459c18.50751,3.54141 29.40192,15.1398 33.56421,33.77585m-6.75104,-158.3277c4.66126,1.2392 9.3693,2.3284 13.96924,3.76404c3.81571,1.19085 5.54437,0.20196 6.68051,-3.82254c4.69785,-16.64139 9.74295,-33.18503 14.69187,-49.75519c3.5708,-11.95584 7.13821,-23.91321 10.81689,-35.83602c1.36957,-4.43881 4.70563,-6.33764 7.66156,-4.53456c3.18066,1.94017 2.88483,4.78145 1.94232,7.90844c-7.10428,23.56987 -14.19464,47.14436 -21.14596,70.75962c-1.61484,5.48591 -4.0206,10.81495 -4.44327,16.77793c1.00336,0.26333 1.62314,0.54074 2.25317,0.56653c1.16059,0.04748 2.35562,0.0982 3.48703,-0.11454c14.37574,-2.70285 25.56607,-9.96377 32.77106,-22.94394c4.18726,-7.54357 5.49487,-15.99884 7.79163,-24.14266c2.12057,-7.51935 4.8226,-15.06196 4.4956,-22.90735c-0.8836,-21.20121 -14.49411,-37.76433 -35.13821,-43.38945c-9.46347,-2.57862 -18.99823,-4.89489 -28.49588,-7.3488c-56.34522,-14.55796 -112.70252,-29.06965 -169.00748,-43.78164c-4.47723,-1.16987 -6.19797,-0.20799 -7.33533,4.19205c-7.19911,27.85103 -14.62333,55.64383 -21.95123,83.46164c-1.97147,7.48398 -3.86636,14.98813 -5.89249,22.85611c8.16405,2.14493 15.69285,4.15308 23.23736,6.10033c54.26768,14.00644 108.53855,28.00052 163.61161,42.19m-42.50052,58.60913c0.00412,-17.31988 -0.24087,-34.64551 0.15525,-51.95642c0.12869,-5.62311 -1.86087,-7.88718 -7.08319,-9.17212c-22.43213,-5.51944 -44.78553,-11.35919 -67.16565,-17.08972c-9.61719,-2.46259 -19.22968,-4.94348 -28.69336,-7.37723c-1.13906,1.89584 -0.81188,3.43253 -0.81259,4.89816c-0.02297,46.797 0.03565,93.59418 -0.1173,140.39069c-0.01472,4.51089 1.5025,5.60977 5.76245,5.5885c30.64214,-0.15301 61.28609,-0.194 91.92751,0.01618c4.99261,0.03427 6.14273,-1.70469 6.09344,-6.34397c-0.20532,-19.31607 -0.07452,-38.63574 -0.06656,-58.95407m-60.44598,191.30762c24.9826,-0.00147 49.96524,0.02545 74.94775,-0.01947c8.96802,-0.01612 15.08863,-5.4842 16.23829,-14.32941c2.29138,-17.62933 4.49542,-35.27045 6.89175,-52.88544c0.57156,-4.2012 -0.81915,-5.66296 -5.03479,-5.59185c-10.98914,0.1853 -21.98358,0.03735 -32.97586,0.06115c-14.2959,0.03098 -12.07221,-1.89068 -12.02112,12.67029c0.04901,13.96909 -9.2612,25.54987 -23.10995,27.55768c-10.76389,1.56055 -21.65967,1.29437 -32.40076,0.48901c-15.37035,-1.15237 -24.58334,-10.09772 -26.93703,-24.79257c-0.57355,-3.58087 -0.44465,-7.31601 -0.27218,-10.96286c0.17248,-3.64749 -1.19431,-5.06689 -4.8828,-5.03873c-13.82241,0.10553 -27.64627,0.01041 -41.46959,0.01743c-1.13823,0.00058 -2.36198,-0.10001 -3.79942,1.50467c2.40876,18.54385 4.71163,37.64175 7.43448,56.67959c1.44775,10.12256 7.21406,14.64814 17.43229,14.65332c19.65299,0.01001 39.30595,-0.0072 59.95894,-0.01281m-59.00005,-83.12012c50.99602,0.00018 101.99202,-0.01392 152.98803,0.03058c3.64639,0.0032 6.97253,0.05044 6.05935,-5.1294c-2.11737,-12.01028 -8.293,-20.83706 -19.82577,-25.60116c-5.56061,-2.29703 -11.31183,-2.16391 -17.16068,-2.15064c-38.66342,0.08768 -77.32711,0.03415 -115.99072,0.05579c-2.49367,0.0014 -5.00708,0.08984 -7.47746,0.40396c-13.01027,1.65433 -25.36997,14.95734 -25.81734,27.43076c-0.12862,3.58615 0.87436,5.15301 4.72844,5.02777c7.15855,-0.23267 14.33003,-0.06781 22.49615,-0.06766m-73.35427,-319.80852c0.43251,-1.43286 0.90031,-2.85615 1.29116,-4.30027c1.42575,-5.26784 0.77694,-6.23162 -4.74891,-7.14936c-9.72678,-1.61543 -19.46775,4.41641 -22.27985,14.36217c-3.98025,14.07725 -7.68793,28.23543 -11.27201,42.41968c-3.00459,11.89087 2.95826,20.94737 14.9912,23.83325c2.923,0.70102 3.93016,-0.23781 4.59259,-2.77667c5.70758,-21.87478 11.46126,-43.73751 17.42582,-66.3888m164.38368,356.20378c6.62518,-5.28915 6.13336,-12.66998 6.26733,-20.07153c0.08264,-4.56467 -1.32092,-6.11328 -5.91931,-6.04895c-15.13373,0.21176 -30.27249,0.04849 -45.40927,0.06619c-12.75298,0.01493 -11.31027,-1.70721 -11.31159,11.44895c-0.00116,11.72934 7.18518,19.03125 18.84009,19.19458c8.14899,0.11419 16.30109,0.05249 24.45145,0.00516c4.59967,-0.02671 8.89496,-1.10257 13.0813,-4.5944m-163.23285,-320.45571c-3.19357,12.15481 -6.38713,24.30964 -9.6144,36.59269c5.5777,2.24781 10.80571,3.0132 15.70105,4.24484c1.66313,-1.16741 1.78504,-2.76428 2.15625,-4.15548c5.70145,-21.36718 11.39234,-42.73737 17.00101,-64.12905c2.98483,-11.38427 2.85339,-11.18742 -8.54141,-14.25618c-4.4308,-1.19326 -5.83109,0.18967 -6.84091,4.25379c-3.04705,12.26317 -6.44988,24.43793 -9.86159,37.44939m70.97276,158.63412c1.88397,0.94998 3.63782,2.3761 6.06601,1.70059c1.0475,-1.87826 0.74152,-3.9133 0.74709,-5.8742c0.03776,-13.31727 -0.05632,-26.63547 0.07606,-39.95157c0.07605,-7.64878 0.5596,-15.29392 -0.06419,-22.94007c-0.162,-1.98544 0.00078,-4.16214 -2.56067,-4.83255c-5.0782,-1.3291 -10.16887,-2.61056 -14.95454,-3.83502c-1.72271,2.25562 -1.24335,4.1553 -1.24753,5.93576c-0.03757,15.98077 -0.01201,31.96167 -0.02643,47.94254c-0.00827,9.17251 3.59296,16.41473 11.9642,21.85452m-157.20542,-185.53761c-6.66898,-1.03803 -12.94627,-3.99744 -19.82099,-4.10019c4.52666,1.6696 9.12506,3.04283 13.79269,4.11461c15.02241,3.44947 27.48336,10.89744 36.52449,23.51451c2.26014,3.15406 5.18399,3.74409 8.89926,4.05139c3.09903,-8.17369 4.71944,-16.66858 6.96933,-24.96515c0.49406,-1.82185 2.45929,-4.33548 -0.03908,-5.90022c-2.34757,-1.47029 -5.06658,-2.31404 -8.03516,-0.88837c-11.96431,5.74599 -24.48961,7.07315 -38.29054,4.17342m119.42904,8.83604c-0.17563,1.80522 -1.78908,4.08884 1.28828,4.92409c7.30613,1.98305 14.64443,3.84759 22.29666,5.84538c1.11686,-4.22908 2.05123,-7.89256 3.06261,-11.53468c0.39995,-1.44033 0.43617,-2.78673 -1.20312,-3.26587c-7.39334,-2.1609 -14.78868,-4.34148 -22.64815,-5.70688c-0.94037,3.32646 -1.74642,6.17775 -2.79628,9.73796m0.4689,41.16274c-11.38032,-2.94757 -11.30191,-2.93267 -13.37379,7.96409c-0.51162,2.69075 0.17473,4.07868 2.79884,4.73248c4.50203,1.12172 8.98933,2.30797 13.45946,3.55117c7.25586,2.01794 6.94462,3.68411 9.54831,-5.52895c1.93748,-6.85573 1.8338,-6.90697 -4.89826,-8.79303c-2.2321,-0.62535 -4.50175,-1.11665 -7.53456,-1.92576m17.06447,-7.59888c0.77512,-2.71671 1.54364,-5.43532 2.32709,-8.14961c0.88069,-3.05124 0.27247,-5.08434 -3.24135,-5.92005c-5.65764,-1.34559 -11.23422,-3.02897 -16.86116,-4.50828c-1.96069,-0.51544 -3.62529,-0.31249 -4.20261,2.14952c-0.86212,3.67663 -1.84244,7.32556 -2.88527,11.4302c8.49628,1.98992 16.10914,5.27683 24.8633,4.99822m-14.82362,50.42746c4.42648,-3.88939 3.44525,-9.50589 5.1954,-14.49779c-7.3343,-2.74235 -14.48289,-4.16516 -21.50795,-6.02307c-2.08513,-0.55145 -2.95337,0.24191 -3.6608,2.15201c-2.28457,6.16838 1.2338,12.98981 8.20777,15.28065c3.6214,1.18956 7.34323,2.07332 11.76558,3.0882m27.203,-98.72974c1.0184,-3.13959 2.09849,-6.261 3.03156,-9.42576c0.5411,-1.83528 -0.04803,-3.37294 -2.02076,-3.88927c-4.31177,-1.12859 -8.60696,-2.53043 -13.00142,-3.07636c-4.76312,-0.59175 -9.55471,2.89023 -11.41024,7.27079c-0.80649,1.90402 -1.13479,3.90201 1.25473,4.4478c7.2086,1.64653 14.05909,4.811 22.14613,4.6728z" id="svg_1" stroke="null"/>
  <path fill="#000000" d="m268.23036,73.43193c-19.71103,-5.06522 -39.02468,-10.02485 -58.3465,-14.95238c-3.66037,-0.93347 -7.11136,-2.3673 -5.86517,-6.92708c1.20007,-4.39102 4.94287,-3.67692 8.28913,-2.81941c23.50597,6.02348 47.00448,12.07597 70.50332,18.12715c32.35635,8.33209 64.71099,16.67093 97.06582,25.00885c0.96652,0.24907 1.92883,0.51492 2.89044,0.78258c3.50358,0.97517 5.0477,3.38157 4.09626,6.79133c-0.94455,3.38503 -3.56992,3.88324 -6.77314,3.03588c-10.76208,-2.84688 -21.55719,-5.5687 -32.33261,-8.36547c-26.37976,-6.84684 -52.75561,-13.70884 -79.52755,-20.68145z" id="svg_2"/>
  <path fill="#000000" d="m236.50346,94.2595c-11.50933,-2.94243 -22.6144,-5.81122 -33.72565,-8.65594c-3.70767,-0.94927 -7.66562,-1.97974 -6.24969,-7.04529c1.36694,-4.89032 5.48243,-3.51325 8.75029,-2.67957c27.22375,6.94507 54.41319,14.02462 81.615,21.05561c28.96805,7.48753 57.92908,15.00271 86.91934,22.40315c3.64392,0.9302 6.61908,2.37755 5.70179,6.57689c-0.94584,4.32994 -4.3386,4.26666 -7.95319,3.32672c-27.66464,-7.19417 -55.34525,-14.32703 -83.01755,-21.49175c-17.21582,-4.45739 -34.42587,-8.93708 -52.04034,-13.48982z" id="svg_3"/>
  <path fill="#000000" d="m221.95448,178.37654c1.84912,-2.00138 3.66614,-2.98868 6.0067,-1.83399c2.40179,1.18488 3.07956,3.2768 3.07815,5.79178c-0.01761,31.63116 -0.00798,63.26236 -0.02505,94.89353c-0.00171,3.15844 -1.08397,5.66058 -4.68915,5.88702c-3.91509,0.24594 -5.12171,-2.42047 -5.56612,-5.67105c-0.13441,-0.98328 -0.09114,-1.99396 -0.091,-2.99207c0.00401,-29.63354 0.01275,-59.26709 0.0211,-88.90063c0.00066,-2.33225 -0.07355,-4.6763 1.26537,-7.17459z" id="svg_4"/>
 </g>

</svg>