<svg version="1.1" id="Layer_1" xmlns="http://www.w3.org/2000/svg" xmlns:xlink="http://www.w3.org/1999/xlink" x="0px" y="0px"
	 width="100%" viewBox="0 0 688 592" enable-background="new 0 0 688 592" xml:space="preserve">
<path fill="#000000" opacity="1.000000" stroke="none" 
	d="
M288.114319,205.829605 
	C330.125244,200.615646 364.931305,220.203003 382.674438,258.856537 
	C394.967957,285.638062 407.123169,312.483032 419.356873,339.292084 
	C422.532257,346.250610 424.432159,353.401855 422.598419,361.072601 
	C421.709229,364.792206 423.319336,365.756042 426.755646,365.722961 
	C438.254456,365.612213 449.755005,365.687469 461.254913,365.688751 
	C506.754608,365.693909 552.254272,365.694855 597.753967,365.705231 
	C606.104736,365.707153 607.279541,366.881866 607.299927,375.205017 
	C607.312927,380.538269 607.513123,385.883514 607.232239,391.202423 
	C606.593750,403.295380 601.394897,412.543335 589.973755,417.692963 
	C584.508118,420.157379 579.126648,422.813782 573.620117,425.181122 
	C558.479858,431.690063 541.642029,424.674377 535.862915,409.275696 
	C534.646057,406.033325 532.967773,404.956543 529.664001,404.960297 
	C470.831177,405.027130 411.974426,404.001862 353.174194,405.389679 
	C317.355988,406.235016 281.563904,406.066223 245.765457,406.193604 
	C200.343323,406.355255 160.764450,371.302063 154.595657,326.448883 
	C154.279709,324.151672 153.790482,321.878326 153.382614,319.597717 
	C145.146729,320.697418 141.568665,330.479828 143.885941,345.388062 
	C144.618500,346.329315 145.686432,346.050995 146.652969,346.152496 
	C152.631348,346.780304 153.420639,347.729889 153.458969,353.623016 
	C153.571640,370.949982 153.759216,388.276428 153.888016,405.603302 
	C153.917557,409.578156 153.659439,413.465698 148.271713,414.835938 
	C153.564285,423.473206 157.658096,432.256287 164.218307,439.399841 
	C171.670425,447.514618 181.415848,450.591858 192.138794,450.612915 
	C233.805023,450.694763 275.471497,450.634735 317.137878,450.656952 
	C336.734650,450.667389 350.444519,466.984344 347.171295,486.328918 
	C345.384735,496.887390 334.602997,506.189606 323.345734,506.267944 
	C296.180634,506.457092 269.013702,506.402771 241.847504,506.411407 
	C221.181229,506.417969 200.512054,506.578308 179.849335,506.294250 
	C154.141769,505.940857 134.154953,485.814423 133.711197,460.009644 
	C133.479126,446.513611 133.587936,433.009979 133.698547,419.511078 
	C133.725983,416.163361 133.179428,414.073242 129.135864,414.259979 
	C125.441223,414.430634 123.697479,412.110291 123.692215,408.560455 
	C123.664314,389.727539 123.618362,370.894165 123.718750,352.061707 
	C123.751045,346.003693 128.705200,346.444763 132.949997,345.891083 
	C134.349030,342.186462 133.628708,338.341949 133.599182,334.612915 
	C133.501831,322.319153 138.519653,313.409546 150.197647,308.802399 
	C152.476944,307.903168 153.488480,306.736420 153.764420,304.141937 
	C158.238434,262.075500 185.929352,230.665070 227.079788,220.708359 
	C247.292236,215.817749 267.483551,210.839874 288.114319,205.829605 
M167.533554,286.951904 
	C164.192169,297.712311 162.889648,308.650421 164.013428,319.927765 
	C166.618484,346.069855 178.872650,366.540619 200.243118,381.501709 
	C215.590973,392.246429 232.830811,396.439331 251.576523,396.231750 
	C279.867676,395.918518 308.176178,396.049225 336.461334,396.693481 
	C356.940613,397.159943 371.128815,379.836456 361.093689,359.311951 
	C348.452667,333.457733 336.412994,307.273712 325.147156,280.792450 
	C312.616364,251.337830 280.558105,225.167862 238.805313,229.089951 
	C207.021057,232.075607 177.303955,255.553207 167.533554,286.951904 
M171.155609,456.547791 
	C157.961349,451.209991 150.996826,439.722626 143.911301,428.289062 
	C143.465027,429.963867 143.456558,431.281219 143.466370,432.598480 
	C143.550613,443.911285 142.470825,455.290314 144.535263,466.505432 
	C147.890701,484.733734 163.877350,496.618866 184.915466,496.644623 
	C229.244354,496.698944 273.573334,496.672791 317.902252,496.635468 
	C320.216675,496.633545 322.576874,496.438416 324.837006,495.960724 
	C334.237000,493.973816 339.520020,485.218414 337.053131,475.929840 
	C334.543701,466.481049 326.545563,460.409088 316.344513,460.401550 
	C275.015259,460.371002 233.685883,460.333344 192.356918,460.437714 
	C185.256317,460.455658 178.419815,459.621399 171.155609,456.547791 
M342.674347,226.832153 
	C319.790649,212.137253 292.522797,212.356308 270.273102,221.185791 
	C301.539001,230.016571 323.169281,249.506775 335.500641,279.486084 
	C338.535675,286.864807 342.091980,294.028961 345.399506,301.295929 
	C346.434418,303.569733 347.666779,305.462952 350.668671,304.454193 
	C362.464630,300.490234 374.262787,296.532837 386.267609,292.503326 
	C385.889740,291.113739 385.759186,290.124969 385.363739,289.256897 
	C380.605682,278.811218 375.979156,268.300781 370.978302,257.971832 
	C364.741028,245.089081 355.424225,234.850983 342.674347,226.832153 
M416.310211,375.516022 
	C402.328827,380.737640 389.249756,387.932312 374.926819,393.946899 
	C384.812042,395.775299 393.276794,394.897430 400.753662,391.482666 
	C408.169861,388.095551 415.602081,384.742645 422.990082,381.295135 
	C426.236664,379.780121 429.360748,379.440735 431.064484,383.119690 
	C432.786621,386.838348 430.302460,388.984619 427.206696,390.551849 
	C424.985260,391.676483 422.409058,392.225647 420.312073,394.367706 
	C436.370087,395.579254 436.953766,395.456390 450.584503,389.019287 
	C456.302307,386.319061 462.055450,383.693420 467.799377,381.048706 
	C470.872589,379.633698 473.817505,379.584381 475.533752,382.941010 
	C477.321991,386.438446 475.160767,388.594849 472.259644,390.122559 
	C469.743988,391.447266 467.148834,392.621063 463.779083,394.253906 
	C475.130615,395.430939 485.004578,394.925537 494.307617,389.542358 
	C500.044769,386.222595 506.324738,383.840637 512.361938,381.039764 
	C515.498230,379.584717 518.442139,379.747467 520.010376,383.113525 
	C521.586792,386.497040 519.767029,388.836792 516.645996,390.286102 
	C514.229980,391.407990 511.797119,392.493469 509.371735,393.595154 
	C519.046997,394.411194 528.980835,396.516571 537.488098,393.929962 
	C551.089783,389.794495 563.744385,382.544067 576.799438,376.610504 
	C550.017944,375.430023 523.562927,375.425537 497.107910,375.431274 
	C470.462982,375.437103 443.818085,375.453125 416.310211,375.516022 
M372.656281,361.122711 
	C375.332611,368.154694 374.972656,375.357239 373.491302,382.441376 
	C374.933807,383.094757 375.765961,382.419098 376.643707,382.017212 
	C386.167328,377.656738 395.587036,373.047455 405.250214,369.022491 
	C410.273041,366.930328 412.213135,363.479919 412.846039,358.429932 
	C414.172943,347.842255 408.132019,339.674316 404.142700,330.831970 
	C403.310669,328.987732 401.624207,329.724304 400.193359,330.189087 
	C394.977722,331.883392 389.753235,333.551422 384.551971,335.288818 
	C377.990479,337.480591 371.448456,339.730652 364.357513,342.139160 
	C367.193329,348.597656 369.779877,354.488403 372.656281,361.122711 
M592.362549,403.815338 
	C598.575989,396.546173 596.722168,387.967499 596.753601,379.662811 
	C595.970459,379.567993 595.588135,379.394867 595.336853,379.509430 
	C579.310669,386.814514 563.309387,394.174255 547.265076,401.439117 
	C544.539429,402.673248 544.719543,404.453369 545.606567,406.698273 
	C548.474548,413.957123 557.666565,419.499023 565.072388,417.190643 
	C574.549927,414.236511 583.799072,410.414764 592.362549,403.815338 
M365.553864,310.193695 
	C361.140930,311.848419 356.371765,312.659515 352.043762,315.292023 
	C354.149689,320.049652 356.207794,324.226776 357.850555,328.561310 
	C359.146606,331.981018 361.122650,332.651245 364.404877,331.492889 
	C372.090759,328.780365 379.811890,326.160645 387.567780,323.655212 
	C399.309631,319.862122 399.327057,319.917114 394.298462,308.824829 
	C393.817810,307.764679 393.263916,306.729492 392.880859,305.634888 
	C391.745605,302.390686 389.757263,301.953400 386.638947,303.089966 
	C379.920563,305.538635 373.085999,307.668579 365.553864,310.193695 
M135.946533,404.229095 
	C144.880188,404.423523 143.598480,404.983276 143.637344,396.587158 
	C143.692093,384.764496 143.535599,372.939545 143.721252,361.119537 
	C143.780106,357.372253 142.458694,356.183289 138.794022,356.227234 
	C135.172470,356.270691 133.243835,357.048950 133.300217,361.217163 
	C133.475876,374.203247 133.344437,387.193329 133.382034,400.181702 
	C133.386566,401.742401 132.885376,403.687469 135.946533,404.229095 
z"/>
<path fill="#000000" opacity="1.000000" stroke="none" 
	d="
M232.005554,259.692566 
	C256.060028,253.551987 278.530731,261.676544 292.683105,281.398804 
	C305.152618,298.775879 305.336243,323.561127 293.136505,342.593231 
	C281.402618,360.898560 258.039948,370.690979 236.686813,366.253998 
	C214.179932,361.577301 197.270844,344.403442 193.558563,322.450409 
	C188.734604,293.923279 203.487030,269.621735 232.005554,259.692566 
M291.727570,317.107544 
	C294.765930,284.057800 264.954010,263.846558 240.437607,268.132202 
	C223.092361,271.164276 208.394974,284.191772 203.771713,302.080139 
	C199.525772,318.508606 206.389053,337.468475 220.099274,347.853333 
	C247.049149,368.266479 286.637817,353.216522 291.727570,317.107544 
z"/>
</svg>